<?xml version="1.0" encoding="utf-8"?>
<svg version="1.1" id="Capa_2" xmlns="http://www.w3.org/2000/svg" xmlns:xlink="http://www.w3.org/1999/xlink" x="0px" y="0px"
	 viewBox="0 0 79.2 71.6" xml:space="preserve">
<style type="text/css">
	.st0{fill:#5A5D96;}
	.st1{fill:#80D1E5;}
	.st2{fill:#74ACDD;}
</style>
<g id="Capa_1-2">
	<path class="st0" d="M64.5,8.6l-25,25l0,0l-0.9,0.9c-0.4,0.4-0.9,0.9-1.4,1.4l-0.8,0.8l-3.3,3.3L14.7,58.4
		c-0.2,0.2-0.5,0.5-0.8,0.8c-0.1,0.1-0.2,0.2-0.3,0.3c-0.5,0.5-1,1-1.5,1.5c-0.6,0.6-1.2,1.2-1.7,1.7c-0.1,0.1-0.2,0.2-0.3,0.3
		c0.6,0.6,1.4,1,2.3,1h54.5c0.9,0,1.7-0.4,2.3-1c0.6-0.6,1-1.4,1-2.3V10.8C70.1,8,66.6,6.5,64.5,8.6z"/>
	<path class="st1" d="M37.3,35.8c1.3-1.3,2.3-2.3,2.3-2.3L14.7,8.6c-2-2-5.5-0.6-5.5,2.3v49.9c0,0.9,0.4,1.7,0.9,2.3
		c1.2-1.2,3.2-3.2,4.6-4.6L37.3,35.8L37.3,35.8z"/>
	<polygon class="st2" points="25.7,19.6 10.1,63 39.6,33.5"/>
</g>
</svg>
